<?xml version="1.0" encoding="UTF-8"?>
<svg width="40px" height="40px" viewBox="0 0 40 40" version="1.1" xmlns="http://www.w3.org/2000/svg" xmlns:xlink="http://www.w3.org/1999/xlink">
    <!-- Generator: Sketch 57.1 (83088) - https://sketch.com -->
    <title>paypalstacked</title>
    <desc>Created with Sketch.</desc>
    <defs>
        <polygon id="path-1" points="0 0.037080292 29.6821692 0.037080292 29.6821692 8.76656934 0 8.76656934"></polygon>
        <polygon id="path-3" points="0.0606404299 0.037080292 24.9452708 0.037080292 24.9452708 10.8029197 0.0606404299 10.8029197"></polygon>
    </defs>
    <g id="Desktop-designs" stroke="none" stroke-width="1" fill="none" fill-rule="evenodd">
        <g id="Enterprise-software-11.1" transform="translate(-319.000000, -4117.000000)">
            <g id="tab-content" transform="translate(0.000000, 3262.000000)">
                <g id="integrations" transform="translate(159.000000, 460.000000)">
                    <g id="logos-left" transform="translate(0.000000, 62.000000)">
                        <g id="logo" transform="translate(140.000000, 313.000000)">
                            <g id="paypalstacked" transform="translate(20.000000, 20.000000)">
                                <g id="Group-4" transform="translate(0.000000, 29.197080)">
                                    <mask id="mask-2" fill="white">
                                        <use xlink:href="#path-1"></use>
                                    </mask>
                                    <g id="Clip-2"></g>
                                    <path d="M27.3254874,2.98014599 C27.1555235,4.10817518 26.3033935,4.10817518 25.4791336,4.10817518 L25.0101083,4.10817518 L25.3390614,2.0020438 C25.3589892,1.87474453 25.4675812,1.7810219 25.5950903,1.7810219 L25.8099639,1.7810219 C26.3711191,1.7810219 26.901083,1.7810219 27.174296,2.10408759 C27.3377617,2.29751825 27.3872924,2.58408759 27.3254874,2.98014599 Z M26.966787,0.037080292 L23.8581949,0.037080292 C23.6456318,0.037080292 23.4646931,0.193430657 23.4316245,0.405693431 L22.1745848,8.46379562 C22.1497473,8.62277372 22.2713357,8.76656934 22.4304693,8.76656934 L24.0254152,8.76656934 C24.1741516,8.76656934 24.3009386,8.65708029 24.3240433,8.50861314 L24.6805776,6.22408759 C24.7136462,6.01182482 24.8945848,5.85547445 25.107148,5.85547445 L26.0908303,5.85547445 C28.1383394,5.85547445 29.32,4.85372263 29.6288809,2.86817518 C29.7679422,1.99985401 29.6345126,1.31751825 29.2323466,0.839854015 C28.7901805,0.314744526 28.0066426,0.037080292 26.966787,0.037080292 L26.966787,0.037080292 Z" id="Fill-1" fill="#238EC2" mask="url(#mask-2)"></path>
                                    <path d="M5.15422383,2.98014599 C4.98425993,4.10817518 4.13198556,4.10817518 3.30787004,4.10817518 L2.83884477,4.10817518 L3.16779783,2.0020438 C3.18772563,1.87474453 3.29617329,1.7810219 3.42368231,1.7810219 L3.63870036,1.7810219 C4.19971119,1.7810219 4.72981949,1.7810219 5.00303249,2.10408759 C5.16649819,2.29751825 5.21602888,2.58408759 5.15422383,2.98014599 Z M4.79537906,0.037080292 L1.686787,0.037080292 C1.47436823,0.037080292 1.2932852,0.193430657 1.26021661,0.405693431 L0.00317689531,8.46379562 C-0.0215162455,8.62277372 0.0999277978,8.76656934 0.259205776,8.76656934 L1.7433935,8.76656934 C1.95595668,8.76656934 2.13689531,8.61021898 2.1699639,8.3979562 L2.50916968,6.22408759 C2.54238267,6.01182482 2.7233213,5.85547445 2.93588448,5.85547445 L3.91942238,5.85547445 C5.96707581,5.85547445 7.14873646,4.85372263 7.45761733,2.86817518 C7.5965343,1.99985401 7.4632491,1.31751825 7.06093863,0.839854015 C6.61891697,0.314744526 5.83537906,0.037080292 4.79537906,0.037080292 L4.79537906,0.037080292 Z" id="Fill-3" fill="#253667" mask="url(#mask-2)"></path>
                                </g>
                                <path d="M12.01213,35.070073 C11.8683032,35.929927 11.193213,36.5071533 10.3319856,36.5071533 C9.90036101,36.5071533 9.55480144,36.3667153 9.33256318,36.1008759 C9.11234657,35.8373723 9.02945848,35.4620438 9.09935018,35.0439416 C9.2333574,34.1918248 9.91927798,33.5960584 10.7673646,33.5960584 C11.1900361,33.5960584 11.5332852,33.7376642 11.7598556,34.0059854 C11.98787,34.2762044 12.0774007,34.6541606 12.01213,35.070073 Z M14.0864982,32.1411679 L12.5981227,32.1411679 C12.4704693,32.1411679 12.3618773,32.2348905 12.3420939,32.3623358 L12.2766787,32.7830657 L12.1725632,32.6306569 C11.8502527,32.1575182 11.1318412,31.999562 10.4144404,31.999562 C8.7699639,31.999562 7.36519856,33.2594161 7.09169675,35.0262774 C6.94945848,35.9078832 7.15148014,36.750219 7.64577617,37.3382482 C8.1000722,37.8783942 8.74830325,38.1033577 9.52057762,38.1033577 C10.846065,38.1033577 11.5812274,37.2424818 11.5812274,37.2424818 L11.5148014,37.6607299 C11.4899639,37.819708 11.6115523,37.9636496 11.7708303,37.9636496 L13.1111913,37.9636496 C13.3237545,37.9636496 13.5046931,37.8074453 13.5377617,37.5951825 L14.3425271,32.4437956 C14.3673646,32.2848175 14.2457762,32.1411679 14.0864982,32.1411679 L14.0864982,32.1411679 Z" id="Fill-5" fill="#253667"></path>
                                <path d="M34.1833935,35.070073 C34.0397112,35.929927 33.3644765,36.5071533 32.5033935,36.5071533 C32.0716245,36.5071533 31.726065,36.3667153 31.5038267,36.1008759 C31.2836101,35.8373723 31.200722,35.4620438 31.2706137,35.0439416 C31.4046209,34.1918248 32.0906859,33.5960584 32.9387726,33.5960584 C33.361444,33.5960584 33.7045487,33.7376642 33.9311191,34.0059854 C34.1591336,34.2762044 34.2486643,34.6541606 34.1833935,35.070073 Z M36.2579061,32.1411679 L34.7693863,32.1411679 C34.6418773,32.1411679 34.5332852,32.2348905 34.5135018,32.3623358 L34.4479422,32.7830657 L34.3439711,32.6306569 C34.0215162,32.1575182 33.3031047,31.999562 32.585704,31.999562 C30.9412274,31.999562 29.5364621,33.2594161 29.2629603,35.0262774 C29.120722,35.9078832 29.3227437,36.750219 29.8171841,37.3382482 C30.2713357,37.8783942 30.9195668,38.1033577 31.6918412,38.1033577 C33.0173285,38.1033577 33.7526354,37.2424818 33.7526354,37.2424818 L33.686065,37.6607299 C33.6612274,37.819708 33.7828159,37.9636496 33.9420939,37.9636496 L35.2825993,37.9636496 C35.4950181,37.9636496 35.6759567,37.8074453 35.7091697,37.5951825 L36.5137906,32.4437956 C36.5386282,32.2848175 36.4170397,32.1411679 36.2579061,32.1411679 L36.2579061,32.1411679 Z" id="Fill-6" fill="#238EC2"></path>
                                <g id="Group-10" transform="translate(15.018051, 29.197080)">
                                    <mask id="mask-4" fill="white">
                                        <use xlink:href="#path-3"></use>
                                    </mask>
                                    <g id="Clip-8"></g>
                                    <path d="M6.99638989,2.94408759 L5.50021661,2.94408759 C5.35711191,2.94408759 5.2232491,3.01591241 5.14296029,3.13547445 L3.07913357,6.20832117 L2.20447653,3.25547445 C2.14974729,3.07080292 1.98151625,2.94408759 1.79075812,2.94408759 L0.32,2.94408759 C0.142382671,2.94408759 0.0174729242,3.12072993 0.0746570397,3.29065693 L1.72216606,8.17912409 L0.172563177,10.3894891 C0.0509747292,10.5629197 0.173718412,10.8029197 0.383971119,10.8029197 L1.87870036,10.8029197 C2.02036101,10.8029197 2.15306859,10.7327007 2.23364621,10.6150365 L7.20938628,3.35532847 C7.32837545,3.18160584 7.20548736,2.94408759 6.99638989,2.94408759" id="Fill-7" fill="#253667" mask="url(#mask-4)"></path>
                                    <path d="M22.9942238,0.258394161 L21.7184116,8.46394161 C21.6937184,8.62291971 21.8153069,8.76656934 21.9744404,8.76656934 L23.2574729,8.76656934 C23.4700361,8.76656934 23.6509747,8.61021898 23.6840433,8.3979562 L24.9420939,0.34 C24.9669314,0.180875912 24.845343,0.037080292 24.686065,0.037080292 L23.2502527,0.037080292 C23.1225993,0.037080292 23.0140072,0.130948905 22.9942238,0.258394161" id="Fill-9" fill="#238EC2" mask="url(#mask-4)"></path>
                                </g>
                                <path d="M29.673935,6.63547445 C29.9885921,4.60715328 29.671769,3.2270073 28.5865704,1.97693431 C27.391769,0.600583942 25.2333574,0.0109489051 22.471769,0.0109489051 L14.4555957,0.0109489051 C13.8911191,0.0109489051 13.4105415,0.426131387 13.3225993,0.989781022 L9.98469314,22.3883212 C9.91884477,22.8105109 10.2415884,23.1922628 10.6644043,23.1922628 L15.6131408,23.1922628 L15.2716245,25.3820438 C15.2140072,25.7513869 15.4963177,26.0854015 15.8662816,26.0854015 L20.0375451,26.0854015 C20.5312635,26.0854015 20.9516245,25.7221898 21.0285921,25.2291971 L21.0694585,25.0148905 L21.8553069,19.9773723 L21.9059928,19.6989781 C21.9828159,19.2059854 22.4031769,18.8427737 22.8968953,18.8427737 L23.5210108,18.8427737 C27.5620217,18.8427737 30.7262094,17.1829197 31.6508303,12.3829197 C32.0371119,10.3770803 31.8374007,8.70291971 30.8157401,7.5259854 C30.5067148,7.16992701 30.1223105,6.87562044 29.673935,6.63547445" id="Fill-11" fill="#238EC2"></path>
                                <path d="M29.673935,6.63547445 C29.9885921,4.60715328 29.671769,3.2270073 28.5865704,1.97693431 C27.391769,0.600583942 25.2333574,0.0109489051 22.471769,0.0109489051 L14.4555957,0.0109489051 C13.8911191,0.0109489051 13.4105415,0.426131387 13.3225993,0.989781022 L9.98469314,22.3883212 C9.91884477,22.8105109 10.2415884,23.1922628 10.6644043,23.1922628 L15.6131408,23.1922628 L16.8563177,15.2232117 L16.8177617,15.4729927 C16.905704,14.9094891 17.3822383,14.4943066 17.9465704,14.4943066 L20.2986282,14.4943066 C24.9179783,14.4943066 28.5350181,12.5970803 29.5919134,7.11007299 C29.6232491,6.94759124 29.6499639,6.79021898 29.673935,6.63547445" id="Fill-12" fill="#20274F"></path>
                                <path d="M18.191769,6.66248175 C18.2446209,6.32335766 18.4597834,6.04583942 18.7496029,5.90540146 C18.8812996,5.84160584 19.0284477,5.80613139 19.1828159,5.80613139 L25.466426,5.80613139 C26.2108303,5.80613139 26.9048375,5.85532847 27.5394946,5.95868613 C27.7208664,5.98817518 27.8973285,6.02218978 28.0687365,6.06058394 C28.2401444,6.09912409 28.4064982,6.1420438 28.5676534,6.18978102 C28.648231,6.21343066 28.7273646,6.23839416 28.805343,6.26452555 C29.1168231,6.36919708 29.4069314,6.49255474 29.673935,6.63547445 C29.9885921,4.60715328 29.671769,3.2270073 28.5865704,1.97693431 C27.391769,0.600583942 25.2333574,0.0109489051 22.471769,0.0109489051 L14.4555957,0.0109489051 C13.8911191,0.0109489051 13.4105415,0.426131387 13.3225993,0.989781022 L9.98469314,22.3883212 C9.91884477,22.8105109 10.2415884,23.1922628 10.6644043,23.1922628 L15.6131408,23.1922628 L18.191769,6.66248175" id="Fill-13" fill="#253667"></path>
                            </g>
                        </g>
                    </g>
                </g>
            </g>
        </g>
    </g>
</svg>